<?xml version="1.0" encoding="utf-8"?>
<!-- Svg Vector Icons : http://www.onlinewebfonts.com/icon -->
<!DOCTYPE svg PUBLIC "-//W3C//DTD SVG 1.1//EN" "http://www.w3.org/Graphics/SVG/1.1/DTD/svg11.dtd">
<svg version="1.1" xmlns="http://www.w3.org/2000/svg" xmlns:xlink="http://www.w3.org/1999/xlink" x="0px" y="0px" viewBox="0 0 1000 1000" enable-background="new 0 0 1000 1000" xml:space="preserve">
<metadata> Svg Vector Icons : http://www.onlinewebfonts.com/icon </metadata>
<g><g><g><path d="M667.9,737c-26.6,0-48.3,21.7-48.3,48.3c0,26.6,21.7,48.3,48.3,48.3s48.3-21.7,48.3-48.3C716.3,758.6,694.6,737,667.9,737z"/><path d="M500,405.7c-26.6,0-48.3,21.7-48.3,48.3c0,26.6,21.7,48.3,48.3,48.3c26.6,0,48.3-21.7,48.3-48.3C548.3,427.4,526.6,405.7,500,405.7z"/><path d="M667.9,405.7c-26.6,0-48.3,21.7-48.3,48.3c0,26.6,21.7,48.3,48.3,48.3s48.3-21.7,48.3-48.3C716.3,427.4,694.6,405.7,667.9,405.7z"/><rect x="290.7" y="161.8" width="418.7" height="109.1"/><path d="M332.1,737c-26.6,0-48.3,21.7-48.3,48.3c0,26.6,21.7,48.3,48.3,48.3c26.6,0,48.3-21.7,48.3-48.3C380.4,758.6,358.7,737,332.1,737z"/><path d="M739.2,10H260.8c-72.3,0-131.1,58.8-131.1,131.1v717.7c0,72.3,58.8,131.1,131.1,131.1h478.5c72.3,0,131.1-58.8,131.1-131.1V141.1C870.4,68.8,811.6,10,739.2,10z M332.1,861.2c-41.9,0-75.9-34.1-75.9-75.9c0-41.9,34-75.9,75.9-75.9c41.9,0,75.9,34.1,75.9,75.9C408,827.1,373.9,861.2,332.1,861.2z M332.1,695.6c-41.9,0-75.9-34.1-75.9-75.9c0-41.9,34-75.9,75.9-75.9c41.9,0,75.9,34,75.9,75.9C408,661.5,373.9,695.6,332.1,695.6z M332.1,529.9c-41.9,0-75.9-34.1-75.9-75.9c0-41.9,34-75.9,75.9-75.9c41.9,0,75.9,34,75.9,75.9C408,495.9,373.9,529.9,332.1,529.9z M500,861.2c-41.9,0-75.9-34.1-75.9-75.9c0-41.9,34-75.9,75.9-75.9c41.9,0,75.9,34.1,75.9,75.9C575.9,827.1,541.9,861.2,500,861.2z M500,695.6c-41.9,0-75.9-34.1-75.9-75.9c0-41.9,34-75.9,75.9-75.9c41.9,0,75.9,34,75.9,75.9C575.9,661.5,541.9,695.6,500,695.6z M500,529.9c-41.9,0-75.9-34.1-75.9-75.9c0-41.9,34-75.9,75.9-75.9c41.9,0,75.9,34,75.9,75.9C575.9,495.9,541.9,529.9,500,529.9z M667.9,861.2c-41.9,0-75.9-34.1-75.9-75.9c0-41.9,34-75.9,75.9-75.9s75.9,34.1,75.9,75.9C743.9,827.1,709.8,861.2,667.9,861.2z M667.9,695.6c-41.9,0-75.9-34.1-75.9-75.9c0-41.9,34-75.9,75.9-75.9s75.9,34,75.9,75.9C743.9,661.5,709.8,695.6,667.9,695.6z M667.9,529.9c-41.9,0-75.9-34.1-75.9-75.9c0-41.9,34-75.9,75.9-75.9s75.9,34,75.9,75.9C743.9,495.9,709.8,529.9,667.9,529.9z M750.8,291.6c0,11.4-9.3,20.7-20.7,20.7H269.9c-11.4,0-20.7-9.3-20.7-20.7V141.1c0-11.4,9.3-20.7,20.7-20.7h460.1c11.4,0,20.7,9.3,20.7,20.7V291.6z"/><path d="M332.1,571.3c-26.6,0-48.3,21.7-48.3,48.3c0,26.6,21.7,48.3,48.3,48.3c26.6,0,48.3-21.7,48.3-48.3C380.4,593,358.7,571.3,332.1,571.3z"/><path d="M500,737c-26.6,0-48.3,21.7-48.3,48.3c0,26.6,21.7,48.3,48.3,48.3c26.6,0,48.3-21.7,48.3-48.3C548.3,758.6,526.6,737,500,737z"/><path d="M332.1,405.7c-26.6,0-48.3,21.7-48.3,48.3c0,26.6,21.7,48.3,48.3,48.3c26.6,0,48.3-21.7,48.3-48.3C380.4,427.4,358.7,405.7,332.1,405.7z"/><path d="M500,571.3c-26.6,0-48.3,21.7-48.3,48.3c0,26.6,21.7,48.3,48.3,48.3c26.6,0,48.3-21.7,48.3-48.3C548.3,593,526.6,571.3,500,571.3z"/><path d="M667.9,571.3c-26.6,0-48.3,21.7-48.3,48.3c0,26.6,21.7,48.3,48.3,48.3s48.3-21.7,48.3-48.3C716.3,593,694.6,571.3,667.9,571.3z"/></g></g><g></g><g></g><g></g><g></g><g></g><g></g><g></g><g></g><g></g><g></g><g></g><g></g><g></g><g></g><g></g></g>
</svg>