<svg xmlns="http://www.w3.org/2000/svg" width="1440" height="1440" viewBox="0 0 1440 1440"><g fill="#64c3a3"><path d="M925.773 715.104c-290.105-23.285-295.955 305.67-468.855 305.67-148.12 0-131.73-159.15-123.995-204.745 17.15-1.28 39.975-7.51 68.025-25.085 74.96-46.98 29.6-138.435 29.6-138.435-1.465 32.015-43.96 34.93-43.96 34.93-79.435 3.7-88.425 65.895-91.09 98.975-10.425-24.65-35.37-69.755-76.77-65.94-55.935 5.15-44.405 27.49-104.375-3.44 0 0-9.265 89.265 83.58 111.94 24.13 5.895 43.135 5.65 57.915 2.48-5.56 477.005 452.47 585.915 734.405 465.875 324.74-138.255 225.625-558.94-64.48-582.225zM931.418 660.909c9.105-19.085 73.57-151.095 191.55-120.65 260.665 67.275 214.555-275.36 9.075-222.43-160.985 41.475-209.425 331.87-213.36 357.965 0 0-.45 3.51.955 4.25 5.545 2.885 11.78-19.135 11.78-19.135z"/><path d="M922.518 491.119c11.355-47.805-46.82-438.93 178.185-380.34 113.815 29.635 84.155 206.9-32.06 210.915-109.135 3.765-118.025 122.415-135.27 168.335 0 0-2.205 7.6-6.53 7.2 0 0-5.685-.405-4.325-6.11z"/><path d="M911.468 675.964s36.19-785.47-374.635-617.49c0 0-189.825 87.96-70.89 283.95 46.6 76.78 153.73 76.655 233.295 62.395 0 0 68.055-14.8 113.755 39.71 45.71 54.51 80.11 218.19 86.33 230.31 7 13.68 12.145 1.125 12.145 1.125z"/></g><g fill="#085877"><path d="M914.133 966.589c13.21 18.19 33.035 23.15 44.27 11.065 11.22-12.14 9.59-36.73-3.63-54.935-13.245-18.245-33.065-23.18-44.275-11.075-11.21 12.12-9.61 36.7 3.635 54.945zM1121.323 1183.959s-155.76 55.445-196.645-99.48c0 0-2.825-5.18.79-7.875 4.52-3.36 11.37.595 11.37.595 35.81 150.98 181.025 93.98 181.025 93.98s6.935 1.63 8.01 4.28c1.075 2.645-.095 7.94-4.55 8.5zM931.418 660.909c9.105-19.085 73.57-151.095 191.55-120.65 260.665 67.275 214.555-275.36 9.075-222.43-160.985 41.475-209.425 331.87-213.36 357.965 0 0-.45 3.51.955 4.25 5.545 2.885 11.78-19.135 11.78-19.135zM911.468 675.964s36.19-785.47-374.635-617.49c0 0-189.825 87.96-70.89 283.95 46.6 76.78 153.73 76.655 233.295 62.395 0 0 68.055-14.8 113.755 39.71 45.71 54.51 80.11 218.19 86.33 230.31 7 13.68 12.145 1.125 12.145 1.125z"/></g></svg>