<svg xmlns="http://www.w3.org/2000/svg" viewBox="0 0 1000 1000"><path d="M667.9 737c-26.6 0-48.3 21.7-48.3 48.3 0 26.6 21.7 48.3 48.3 48.3s48.3-21.7 48.3-48.3c.1-26.7-21.6-48.3-48.3-48.3zM500 405.7c-26.6 0-48.3 21.7-48.3 48.3 0 26.6 21.7 48.3 48.3 48.3 26.6 0 48.3-21.7 48.3-48.3 0-26.6-21.7-48.3-48.3-48.3zM667.9 405.7c-26.6 0-48.3 21.7-48.3 48.3 0 26.6 21.7 48.3 48.3 48.3s48.3-21.7 48.3-48.3c.1-26.6-21.6-48.3-48.3-48.3zM290.7 161.8h418.7v109.1H290.7zM332.1 737c-26.6 0-48.3 21.7-48.3 48.3 0 26.6 21.7 48.3 48.3 48.3 26.6 0 48.3-21.7 48.3-48.3 0-26.7-21.7-48.3-48.3-48.3z"/><path d="M739.2 10H260.8c-72.3 0-131.1 58.8-131.1 131.1v717.7c0 72.3 58.8 131.1 131.1 131.1h478.5c72.3 0 131.1-58.8 131.1-131.1V141.1C870.4 68.8 811.6 10 739.2 10zM332.1 861.2c-41.9 0-75.9-34.1-75.9-75.9 0-41.9 34-75.9 75.9-75.9 41.9 0 75.9 34.1 75.9 75.9 0 41.8-34.1 75.9-75.9 75.9zm0-165.6c-41.9 0-75.9-34.1-75.9-75.9 0-41.9 34-75.9 75.9-75.9 41.9 0 75.9 34 75.9 75.9 0 41.8-34.1 75.9-75.9 75.9zm0-165.7c-41.9 0-75.9-34.1-75.9-75.9 0-41.9 34-75.9 75.9-75.9 41.9 0 75.9 34 75.9 75.9 0 41.9-34.1 75.9-75.9 75.9zM500 861.2c-41.9 0-75.9-34.1-75.9-75.9 0-41.9 34-75.9 75.9-75.9 41.9 0 75.9 34.1 75.9 75.9 0 41.8-34 75.9-75.9 75.9zm0-165.6c-41.9 0-75.9-34.1-75.9-75.9 0-41.9 34-75.9 75.9-75.9 41.9 0 75.9 34 75.9 75.9 0 41.8-34 75.9-75.9 75.9zm0-165.7c-41.9 0-75.9-34.1-75.9-75.9 0-41.9 34-75.9 75.9-75.9 41.9 0 75.9 34 75.9 75.9 0 41.9-34 75.9-75.9 75.9zm167.9 331.3c-41.9 0-75.9-34.1-75.9-75.9 0-41.9 34-75.9 75.9-75.9s75.9 34.1 75.9 75.9c.1 41.8-34 75.9-75.9 75.9zm0-165.6c-41.9 0-75.9-34.1-75.9-75.9 0-41.9 34-75.9 75.9-75.9s75.9 34 75.9 75.9c.1 41.8-34 75.9-75.9 75.9zm0-165.7c-41.9 0-75.9-34.1-75.9-75.9 0-41.9 34-75.9 75.9-75.9s75.9 34 75.9 75.9c.1 41.9-34 75.9-75.9 75.9zm82.9-238.3c0 11.4-9.3 20.7-20.7 20.7H269.9c-11.4 0-20.7-9.3-20.7-20.7V141.1c0-11.4 9.3-20.7 20.7-20.7H730c11.4 0 20.7 9.3 20.7 20.7v150.5z"/><path d="M332.1 571.3c-26.6 0-48.3 21.7-48.3 48.3 0 26.6 21.7 48.3 48.3 48.3 26.6 0 48.3-21.7 48.3-48.3 0-26.6-21.7-48.3-48.3-48.3zM500 737c-26.6 0-48.3 21.7-48.3 48.3 0 26.6 21.7 48.3 48.3 48.3 26.6 0 48.3-21.7 48.3-48.3 0-26.7-21.7-48.3-48.3-48.3zM332.1 405.7c-26.6 0-48.3 21.7-48.3 48.3 0 26.6 21.7 48.3 48.3 48.3 26.6 0 48.3-21.7 48.3-48.3 0-26.6-21.7-48.3-48.3-48.3zM500 571.3c-26.6 0-48.3 21.7-48.3 48.3 0 26.6 21.7 48.3 48.3 48.3 26.6 0 48.3-21.7 48.3-48.3 0-26.6-21.7-48.3-48.3-48.3zM667.9 571.3c-26.6 0-48.3 21.7-48.3 48.3 0 26.6 21.7 48.3 48.3 48.3s48.3-21.7 48.3-48.3c.1-26.6-21.6-48.3-48.3-48.3z"/></svg>