<svg xmlns="http://www.w3.org/2000/svg" width="612" height="612" viewBox="0 0 612 612"><path d="M460.377 61.143c-9.835-5.704-22.4-2.329-28.104 7.545l-20.554 35.567 71.221 41.109 20.555-35.567c5.661-9.874 2.29-22.4-7.545-28.104l-35.573-20.55zM149.189 61.143l-35.568 20.555c-9.835 5.704-13.206 18.226-7.549 28.104l20.554 35.568 71.222-41.109-20.555-35.567c-5.704-9.88-18.269-13.251-28.104-7.551zM306 92.56c13 0 25.699 1.272 38.25 3.065V62.357l26.297-.201V19.125C370.547 8.554 361.993 0 351.422 0h-90.643c-10.571 0-19.125 8.554-19.125 19.125v43.031l26.096.201v33.268C280.301 93.832 293 92.56 306 92.56zM306 203.5c-88.295 0-159.875 71.575-159.875 159.875S217.7 523.25 306 523.25s159.875-71.58 159.875-159.875S394.295 203.5 306 203.5zm22.988 189.17c-9.252 8.434-27.736 3.228-41.286-11.628-13.55-14.86-17.041-33.746-7.789-42.181 9.251-8.434 92.005-54.057 117.303-57.695-5.952 24.854-58.976 103.069-68.228 111.504z"/><path d="M306 114.75c-137.312 0-248.625 111.312-248.625 248.625S168.688 612 306 612s248.625-111.312 248.625-248.625S443.312 114.75 306 114.75zm0 450.355c-111.413 0-201.73-90.317-201.73-201.73S194.588 161.64 306 161.64c111.413 0 201.735 90.323 201.735 201.735 0 111.413-90.322 201.73-201.735 201.73z"/></svg>